<svg width="715" height="193" viewBox="0 0 715 193" fill="none" xmlns="http://www.w3.org/2000/svg">
<path d="M573 59C579.917 67.1509 582.074 75.4143 582 86C580.982 93.1232 577.953 98.8103 573 104C568.875 107 568.875 107 566 107C568.823 112.908 572.02 118.352 575.625 123.812C576.115 124.562 576.605 125.312 577.109 126.084C579.059 129.065 581.024 132.036 583 135C583.25 138.062 583.25 138.062 583 141C580.109 143.89 577.126 143.521 573.25 143.625C572.546 143.683 571.842 143.741 571.117 143.801C567.872 143.879 565.826 143.749 563.364 141.518C561.754 139.417 560.37 137.264 559 135C558.238 133.825 558.238 133.825 557.46 132.625C555.882 130.184 554.343 127.722 552.812 125.25C551.779 123.588 550.744 121.926 549.707 120.266C549.258 119.541 548.809 118.817 548.347 118.071C547.902 117.388 547.458 116.704 547 116C546.541 115.26 546.082 114.52 545.609 113.758C544.148 111.822 544.148 111.822 541.915 111.546C541.135 111.567 540.355 111.588 539.551 111.609C538.703 111.622 537.855 111.635 536.982 111.648C536.101 111.682 535.22 111.715 534.312 111.75C533.42 111.768 532.527 111.786 531.607 111.805C529.404 111.852 527.202 111.918 525 112C525.01 112.767 525.021 113.533 525.032 114.323C525.073 117.799 525.099 121.274 525.125 124.75C525.15 126.56 525.15 126.56 525.176 128.406C525.182 129.566 525.188 130.727 525.195 131.922C525.206 132.99 525.216 134.058 525.227 135.159C524.999 138.01 524.567 139.631 523 142C520.309 143.346 518.128 143.206 515.125 143.25C514.076 143.276 513.026 143.302 511.945 143.328C508.476 142.942 507.371 142.55 505 140C504.608 137.172 504.473 134.733 504.514 131.904C504.51 131.08 504.506 130.255 504.502 129.405C504.495 126.676 504.516 123.948 504.539 121.219C504.541 119.325 504.542 117.43 504.542 115.536C504.545 111.565 504.561 107.594 504.588 103.623C504.622 98.5279 504.63 93.4336 504.628 88.3388C504.629 84.4269 504.64 80.5151 504.654 76.6033C504.661 74.7246 504.665 72.8459 504.666 70.9671C504.67 68.3432 504.688 65.7196 504.709 63.0957C504.708 62.3164 504.707 61.5371 504.707 60.7341C504.752 56.9551 504.851 55.2229 507 52C508.83 51.5878 508.83 51.5878 511.076 51.5359C511.918 51.5096 512.76 51.4834 513.627 51.4563C514.542 51.4437 515.456 51.431 516.398 51.418C517.344 51.3953 518.289 51.3726 519.263 51.3492C521.272 51.3045 523.281 51.2672 525.29 51.2366C528.328 51.1882 531.365 51.1126 534.402 51.0332C562.766 50.4048 562.766 50.4048 573 59ZM525 70C524.196 72.8318 523.872 75.3525 523.867 78.293C523.866 79.0877 523.864 79.8824 523.863 80.7012C523.867 81.5217 523.871 82.3421 523.875 83.1875C523.871 84.0196 523.867 84.8517 523.863 85.709C523.473 89.6701 523.473 89.6701 525 93C528.659 93.2553 532.333 93.1852 536 93.1875C537.525 93.2059 537.525 93.2059 539.082 93.2246C546.515 93.2389 553.748 93.1901 560.062 88.9375C562.368 85.4425 562.728 83.2749 562.488 79.1523C561.686 75.6159 559.858 74.0958 557 72C553.082 70.0777 549.948 69.7635 545.605 69.8047C544.403 69.8111 543.201 69.8176 541.963 69.8242C540.094 69.8494 540.094 69.8494 538.187 69.875C536.922 69.884 535.657 69.893 534.353 69.9023C531.235 69.9259 528.118 69.9588 525 70Z" fill="#B79554"/>
<path d="M606.189 50.4983C607.441 50.4889 608.692 50.4795 609.981 50.4698C611.343 50.4803 612.705 50.4917 614.066 50.5039C615.466 50.5037 616.865 50.5022 618.265 50.4995C621.195 50.4981 624.124 50.5106 627.053 50.5334C630.808 50.5618 634.563 50.5591 638.318 50.5463C641.207 50.5394 644.095 50.5472 646.983 50.5596C648.368 50.5641 649.753 50.5644 651.137 50.5605C653.072 50.5576 655.006 50.5763 656.939 50.5959C658.59 50.604 658.59 50.604 660.274 50.6123C663 51 663 51 664.856 52.3199C666.742 55.0905 666.356 57.779 666.312 61.0625C666.308 62.3116 666.305 63.5607 666.301 64.8476C666 68 666 68 664 70C661.937 70.2405 661.937 70.2405 659.366 70.227C658.406 70.2269 657.445 70.2267 656.455 70.2266C655.415 70.2163 654.376 70.2059 653.304 70.1953C652.242 70.1925 651.179 70.1896 650.085 70.1867C646.681 70.1755 643.278 70.1504 639.875 70.125C637.571 70.115 635.268 70.1058 632.965 70.0976C627.31 70.0756 621.655 70.041 616 70C616 75.61 616 81.22 616 87C617.221 86.979 618.442 86.9581 619.7 86.9365C624.232 86.8641 628.764 86.8182 633.297 86.7803C635.258 86.7601 637.22 86.7329 639.181 86.6982C642.001 86.6497 644.82 86.627 647.64 86.6094C648.955 86.5784 648.955 86.5784 650.295 86.5468C656.37 86.5446 656.37 86.5446 659.552 88.8447C661.461 91.6867 661.534 93.595 661.5 97C661.515 98.5469 661.515 98.5469 661.531 100.125C660.844 103.845 660.068 104.782 657 107C653.876 107.556 650.804 107.465 647.64 107.391C646.736 107.385 645.832 107.379 644.9 107.373C642.016 107.351 639.133 107.301 636.25 107.25C634.293 107.23 632.336 107.212 630.379 107.195C625.585 107.151 620.793 107.082 616 107C616 112.61 616 118.22 616 124C618.165 123.976 618.165 123.976 620.374 123.952C625.715 123.898 631.056 123.864 636.398 123.835C638.712 123.82 641.027 123.8 643.341 123.774C646.662 123.737 649.983 123.72 653.304 123.707C654.864 123.684 654.864 123.684 656.455 123.66C657.416 123.66 658.376 123.66 659.366 123.659C660.215 123.653 661.063 123.646 661.937 123.639C662.618 123.758 663.298 123.877 664 124C666.372 127.558 666.298 129.28 666.312 133.5C666.329 134.645 666.346 135.789 666.363 136.969C666 140 666 140 664.863 141.664C662.172 143.593 660.122 143.388 656.832 143.404C655.56 143.417 654.289 143.429 652.979 143.442C651.59 143.44 650.201 143.437 648.812 143.434C647.389 143.438 645.965 143.443 644.542 143.449C641.559 143.458 638.577 143.456 635.594 143.446C631.771 143.435 627.948 143.455 624.124 143.484C621.185 143.502 618.246 143.502 615.307 143.496C613.897 143.496 612.488 143.502 611.078 143.515C609.108 143.529 607.138 143.516 605.168 143.502C603.486 143.501 603.486 143.501 601.77 143.501C599 143 599 143 597.14 141.475C595.53 137.979 595.573 134.673 595.596 130.898C595.589 130.085 595.582 129.272 595.575 128.433C595.557 125.747 595.56 123.061 595.566 120.375C595.562 118.507 595.556 116.639 595.55 114.771C595.541 110.857 595.544 106.943 595.554 103.029C595.565 98.0119 595.545 92.9953 595.516 87.978C595.497 84.121 595.498 80.2641 595.503 76.407C595.504 74.557 595.498 72.707 595.485 70.8571C595.47 68.2715 595.481 65.6871 595.498 63.1015C595.488 62.3368 595.479 61.572 595.469 60.784C595.515 57.4364 595.774 55.3402 597.644 52.525C600.677 50.5613 602.585 50.4988 606.189 50.4983Z" fill="#9C6F34"/>
<path d="M469 56.9999C470.072 57.5981 471.145 58.1962 472.25 58.8124C482.922 67.3021 489.968 77.8025 491.793 91.5546C491.861 92.3616 491.929 93.1685 492 94C492.058 94.6832 492.116 95.3664 492.176 96.0703C492.253 98.0792 492.17 99.9968 492 102C491.931 102.807 491.863 103.614 491.793 104.445C490.428 114.737 485.193 127.236 477 134C466.501 141.375 457.971 144.352 445.125 144.312C444.087 144.329 443.049 144.345 441.98 144.361C432.719 144.367 425.458 142.675 418 137C417.447 136.591 416.894 136.183 416.324 135.762C406.919 128.358 402.158 118.452 399.25 107.062C397.881 90.2911 401.019 77.3667 411.687 64.2499C425.322 49.5205 451.968 46.8689 469 56.9999ZM422.187 81.125C419.174 85.6843 418.551 90.6521 418 96C417.916 96.7889 417.832 97.5778 417.746 98.3906C417.337 105.941 420.166 111.971 424.812 117.812C429.654 123.082 435.087 125.653 442.215 126.156C450.136 126.449 457.528 124.801 464 120C464 119.34 464 118.68 464 118C464.99 117.67 465.98 117.34 467 117C472.04 108.905 474.006 100.154 472 90.75C469.791 83.2837 465.602 77.2441 459 73C446.314 66.5453 431.168 70.2122 422.187 81.125Z" fill="#D4BF76"/>
<path d="M69.2305 50.7696C71.3125 50.625 71.3125 50.625 75 51C78.3951 54.5016 80.195 58.276 82.0742 62.7383C82.3556 63.4001 82.637 64.0618 82.9269 64.7436C83.8546 66.9301 84.7711 69.1212 85.6875 71.3125C86.3374 72.8509 86.988 74.3889 87.6394 75.9266C89.0286 79.2086 90.4135 82.4925 91.7959 85.7774C94.0776 91.1927 96.385 96.5969 98.6953 102C99.8562 104.718 101.017 107.436 102.177 110.154C102.931 111.919 103.685 113.683 104.439 115.447C105.5 117.929 106.557 120.412 107.613 122.895C107.927 123.628 108.241 124.36 108.565 125.116C113.715 137.25 113.715 137.25 112 142C108.24 144.507 105.261 144.303 100.904 144.306C100.08 144.315 99.255 144.323 98.4053 144.332C95.6764 144.356 92.9477 144.365 90.2188 144.371C88.3245 144.38 86.4303 144.389 84.536 144.398C80.5648 144.415 76.5938 144.423 72.6226 144.426C67.5276 144.431 62.4335 144.469 57.3388 144.514C53.427 144.544 49.5153 144.551 45.6033 144.552C43.7245 144.557 41.8458 144.569 39.9671 144.59C37.3427 144.617 34.7202 144.612 32.0957 144.599C30.9267 144.622 30.9267 144.622 29.7341 144.644C27.5675 144.615 27.5675 144.615 24 144C21.9757 141.607 21.9757 141.607 21 139C21.293 136.684 21.293 136.684 22.1875 134.438C22.4698 133.694 22.7521 132.95 23.043 132.184C25.6838 126.158 25.6838 126.158 28 125C39.7141 123.042 51.9446 124.121 63.75 124.438C65.9114 124.491 68.0729 124.544 70.2344 124.596C75.4898 124.724 80.7449 124.859 86 125C85.7034 124.301 85.4069 123.603 85.1013 122.883C83.7125 119.61 82.3248 116.336 80.9375 113.063C80.4381 111.884 79.9388 110.706 79.4243 109.492C76.2349 101.955 73.0792 94.4057 70.0193 86.8147C68.894 83.673 68.894 83.673 67 81C66.342 82.6123 66.342 82.6123 65.6707 84.2571C64.0401 88.2466 62.3996 92.2319 60.7561 96.2161C60.0464 97.9406 59.3393 99.6662 58.635 101.393C57.6218 103.876 56.599 106.354 55.5742 108.832C55.2616 109.604 54.949 110.376 54.6269 111.171C54.3268 111.892 54.0267 112.612 53.7175 113.355C53.4577 113.988 53.1979 114.621 52.9302 115.273C51.5099 117.91 49.9478 119.647 47.125 120.699C41.9575 121.431 36.7188 121.119 32.3125 118.25C31 116 31 116 31.2752 113.713C32.0577 110.784 33.0895 108.126 34.2849 105.339C34.7589 104.228 35.2328 103.117 35.7212 101.972C36.4915 100.188 36.4915 100.188 37.2773 98.3672C37.8095 97.1262 38.3414 95.885 38.8729 94.6436C39.9854 92.0484 41.1012 89.4546 42.2195 86.8619C43.6517 83.5408 45.0769 80.2169 46.4999 76.8919C47.5965 74.3309 48.6962 71.7714 49.7968 69.2122C50.5792 67.392 51.3596 65.5709 52.1399 63.7498C52.617 62.645 53.0941 61.5402 53.5857 60.4019C54.0046 59.4288 54.4235 58.4557 54.8551 57.4531C56 55 56 55 58 52C61.6407 51.0106 65.4874 51.1563 69.2305 50.7696Z" fill="#9E7237"/>
<path d="M370.027 55.4766C379.641 60.6814 386.91 67.6821 391 78C391.359 80.5068 391.27 82.4595 391 85C388.104 86.448 385.34 86.5084 382.125 86.8125C380.273 87.0078 380.273 87.0078 378.383 87.2071C375 87 375 87 372.676 85.1992C371 83 371 83 369.062 80C365.618 74.99 361.948 72.2978 356 71C347.242 70.1743 340.471 71.0835 333.254 76.25C327.797 81.0403 325.415 87.3044 324.617 94.4063C324.365 102.133 325.477 108.135 329 115C329.374 115.75 329.748 116.5 330.133 117.273C330.562 118.128 330.562 118.128 331 119C331.66 119 332.32 119 333 119C333 119.66 333 120.32 333 121C341.57 124.529 349.983 126.882 359.258 124.395C361.291 123.564 361.291 123.564 364 122C365.145 121.536 365.145 121.536 366.312 121.063C368.522 119.672 368.943 118.378 370 116C371.59 112.898 371.59 112.898 374 110C377.566 109.273 377.566 109.273 381.562 109.375C382.235 109.369 382.907 109.362 383.6 109.355C386.847 109.426 388.591 109.615 390.992 111.875C392 114 392 114 391.562 116.625C386.335 127.915 379.438 136.593 368 142C355.322 145.824 338.903 146.277 327 140C316.075 133.338 309.365 123.557 306.316 111.238C303.367 96.6529 305.488 83.0022 312.687 69.9375C319.462 61.3321 325.62 56.6098 336 53C336.785 52.6339 337.57 52.2678 338.379 51.8907C348.513 48.447 360.731 50.9424 370.027 55.4766Z" fill="#EEE495"/>
<path d="M222.657 50.657C227.638 50.8972 230.428 51.8358 233.817 55.5664C236.937 59.6225 239.634 63.9427 242.301 68.3057C245.019 72.6162 248.113 76.6285 251.188 80.6875C256.176 87.4052 260.987 94.2265 265.626 101.19C267.794 104.641 267.794 104.641 271 107C271.008 106.37 271.016 105.74 271.025 105.091C271.111 98.537 271.21 91.9836 271.318 85.4302C271.356 82.9839 271.391 80.5376 271.422 78.0913C271.468 74.5763 271.526 71.0617 271.586 67.5469C271.598 66.452 271.609 65.357 271.621 64.2289C271.641 63.2082 271.661 62.1874 271.681 61.1357C271.695 60.2386 271.708 59.3415 271.722 58.4172C272 56 272 56 274 52C279.28 52 284.56 52 290 52C292.25 58.7508 292.25 58.7508 292.243 61.9937C292.246 62.7264 292.249 63.4591 292.252 64.2141C292.245 64.9968 292.238 65.7795 292.231 66.5859C292.231 67.8436 292.231 67.8436 292.231 69.1266C292.227 71.8762 292.208 74.6255 292.188 77.375C292.179 79.2851 292.172 81.1951 292.164 83.1052C292.098 95.7081 291.942 108.311 291.68 120.912C291.643 122.677 291.61 124.441 291.579 126.206C291.534 128.66 291.476 131.113 291.414 133.566C291.403 134.295 291.391 135.023 291.379 135.773C291.23 140.771 291.23 140.771 289 143C286.343 143.28 283.847 143.416 281.188 143.438C280.475 143.47 279.763 143.503 279.03 143.537C275.046 143.578 273.256 143.208 270.133 140.672C264 132.989 264 132.989 264 130C263.34 130 262.68 130 262 130C259 125.615 259 125.615 259 123C258.34 123 257.68 123 257 123C255.617 121.198 254.321 119.329 253.063 117.438C249.033 111.441 244.812 105.615 240.456 99.8513C237 95.216 237 95.216 237 93C236.34 93 235.68 93 235 93C234.079 91.6884 233.171 90.3656 232.313 89.0117C230.747 86.6115 229.069 84.3119 227.375 82C224.1 77.5178 220.852 73.0171 217.625 68.5C217.196 67.9006 216.768 67.3012 216.326 66.6836C210.628 58.702 210.628 58.702 211 53C213.575 50.4251 219.16 50.7887 222.657 50.657Z" fill="#DCC97F"/>
<path d="M190.937 51.7501C191.775 51.7294 192.612 51.7088 193.474 51.6876C194.276 51.6824 195.077 51.6772 195.902 51.6719C197.008 51.6579 197.008 51.6579 198.136 51.6436C198.751 51.7612 199.366 51.8789 200 52.0001C202 55.0001 202 55.0001 201.812 57.3751C200.912 60.2854 199.77 62.5224 198 65.0001C197.34 65.0001 196.68 65.0001 196 65.0001C195.891 65.5741 195.783 66.1481 195.671 66.7396C194.907 69.3112 193.817 70.9853 192.262 73.168C191.694 73.9714 191.126 74.7747 190.542 75.6024C189.93 76.4555 189.318 77.3086 188.687 78.1876C188.065 79.0658 187.442 79.9441 186.8 80.8489C185.51 82.6679 184.217 84.4852 182.922 86.3008C181.084 88.8816 179.258 91.47 177.437 94.0626C169.166 105.834 169.166 105.834 168 107C167.865 109.484 167.789 111.944 167.754 114.43C167.721 115.962 167.688 117.495 167.654 119.027C167.607 121.452 167.562 123.877 167.523 126.302C167.483 128.637 167.432 130.971 167.379 133.305C167.37 134.03 167.362 134.755 167.353 135.502C167.263 139.195 167.102 140.847 165 144C162.211 144.221 159.653 144.281 156.875 144.188C155.744 144.167 155.744 144.167 154.59 144.147C152.726 144.111 150.863 144.057 149 144C146.67 139.34 147.341 132.798 147.139 127.642C146.994 124.893 146.739 122.166 146.48 119.426C145.394 104.649 148.886 96.5938 158.178 85.2642C161.142 81.581 163.802 77.6928 166.5 73.8126C167.448 72.4857 168.396 71.1589 169.344 69.8321C171.717 66.4844 173.84 63.021 175.904 59.4754C176.266 58.9885 176.627 58.5017 177 58.0001C177.66 58.0001 178.32 58.0001 179 58.0001C179.309 57.1957 179.619 56.3913 179.937 55.5626C182.067 50.4254 185.974 51.7805 190.937 51.7501Z" fill="#BD9F5B"/>
<path d="M114 52C129.672 50.493 129.672 50.493 134.625 53.6992C136.725 56.3457 138.336 59.059 140 62C140.883 63.2851 141.78 64.5607 142.688 65.8281C143.626 67.1552 144.564 68.4833 145.5 69.8125C145.947 70.4461 146.393 71.0798 146.854 71.7326C148.658 74.423 149.935 76.6069 150.469 79.8242C150 82 150 82 147 84C143.602 84.5898 143.602 84.5898 139.625 84.9375C137.664 85.1366 137.664 85.1366 135.664 85.3398C132 85 132 85 129.406 83.0351C126.426 79.2755 123.606 75.4437 120.875 71.5C120.35 70.7536 119.826 70.0072 119.285 69.2383C118.28 67.8001 117.284 66.355 116.3 64.9023C115.242 63.3547 114.132 61.8432 113.008 60.3437C112 58 112 58 112.813 54.6875C113.204 53.8006 113.596 52.9137 114 52Z" fill="#B28F4F"/>
<path d="M219.875 110.688C221.449 110.631 221.449 110.631 223.055 110.574C226.763 111.11 227.692 112.101 230 115C230.486 117.594 230.486 117.594 230.461 120.5C230.457 121.552 230.453 122.604 230.449 123.688C230.425 124.781 230.4 125.874 230.375 127C230.374 128.093 230.372 129.186 230.371 130.312C230.274 139.154 230.274 139.154 228 143C225.542 143.027 223.083 143.047 220.625 143.062C219.926 143.071 219.228 143.079 218.508 143.088C213.227 143.113 213.227 143.113 211 142C209.726 136.88 209.817 131.681 209.812 126.438C209.8 125.6 209.788 124.763 209.775 123.9C209.765 119.538 209.797 115.904 212 112C214.686 110.657 216.877 110.757 219.875 110.688Z" fill="#CCB56E"/>
<path d="M446.5 51.875C447.513 51.8841 448.526 51.8931 449.57 51.9024C452.047 51.9257 454.523 51.9585 457 52C457 52.33 457 52.66 457 53C456.101 53.0219 456.101 53.0219 455.183 53.0442C452.434 53.1193 449.686 53.2157 446.937 53.3125C445.523 53.3464 445.523 53.3464 444.08 53.3809C438.303 53.6023 434.159 54.3867 429 57C428.072 57.3094 427.144 57.6188 426.187 57.9375C423.846 58.8003 423.846 58.8003 423 61C422 63 422 63 419.5 63.9375C416.752 64.7864 416.752 64.7864 415.687 67.625C415.46 68.4088 415.234 69.1925 415 70C414.01 69.67 413.02 69.34 412 69C412 69.66 412 70.32 412 71C411.01 71 410.02 71 409 71C408.567 72.1138 408.567 72.1138 408.125 73.25C407.477 74.8328 406.797 76.4047 406.031 77.9336C401.772 86.4676 401.394 94.5791 402 104C402.33 104.66 402.66 105.32 403 106C404.98 105.505 404.98 105.505 407 105C407.33 106.32 407.66 107.64 408 109C406.02 109.495 406.02 109.495 404 110C404 110.99 404 111.98 404 113C405.98 112.505 405.98 112.505 408 112C407.34 115.3 406.68 118.6 406 122C407.32 122.33 408.64 122.66 410 123C411.052 123.557 411.052 123.557 412.125 124.125C412.744 124.414 413.362 124.703 414 125C414.99 124.505 414.99 124.505 416 124C415.814 124.639 415.629 125.279 415.437 125.938C415.293 126.618 415.149 127.299 415 128C416.911 129.911 419.595 130.823 422 132C421.01 132.495 421.01 132.495 420 133C420 133.66 420 134.32 420 135C424.481 138.717 427.285 139.22 433 139C433.99 139.99 433.99 139.99 435 141C434.67 141.33 434.34 141.66 434 142C434.99 142.99 434.99 142.99 436 144C428.915 143.027 423.726 141.301 418 137C417.404 136.568 416.809 136.136 416.195 135.691C406.851 128.362 402.13 118.343 399.25 107.063C397.881 90.2912 401.019 77.3668 411.687 64.25C421.251 53.9181 433.045 51.6455 446.5 51.875Z" fill="#DDCE8B"/>
<path d="M507 52C510.051 51.7335 512.896 51.6524 515.945 51.707C516.83 51.7113 517.715 51.7155 518.627 51.7199C521.46 51.7367 524.292 51.7744 527.125 51.8125C529.043 51.8275 530.961 51.8412 532.879 51.8535C537.586 51.8866 542.293 51.9384 547 52C547 52.33 547 52.66 547 53C544.333 53.1728 541.667 53.3393 539 53.5C537.789 53.5748 537.789 53.5748 536.554 53.6511C532.486 53.882 528.457 54.0288 524.383 53.9258C523.665 53.909 522.947 53.8922 522.207 53.875C520.223 53.8154 518.24 53.7306 516.258 53.6445C512.971 53.743 512.971 53.743 510.617 55.6367C507.572 60.0859 507.866 65.4 507.794 70.6479C507.775 71.9488 507.755 73.2497 507.734 74.59C507.717 75.9949 507.7 77.3998 507.683 78.8047C507.663 80.2534 507.642 81.7022 507.62 83.1509C507.565 86.9484 507.516 90.7459 507.468 94.5435C507.417 98.4249 507.362 102.306 507.306 106.187C507.199 113.792 507.098 121.396 507 129C507.66 129.33 508.32 129.66 509 130C508.67 131.32 508.34 132.64 508 134C508.66 134 509.32 134 510 134C510.124 134.639 510.247 135.279 510.375 135.937C510.581 136.618 510.787 137.299 511 138C511.66 138.33 512.32 138.66 513 139C512.505 139.99 512.505 139.99 512 141C512.99 140.505 512.99 140.505 514 140C516.333 139.96 518.667 139.957 521 140C521.33 138.02 521.66 136.04 522 134C523.381 136.275 524.057 137.502 523.75 140.187C523 142 523 142 521 143C519.045 143.148 517.085 143.221 515.125 143.25C514.076 143.276 513.026 143.302 511.945 143.328C508.476 142.942 507.371 142.55 505 140C504.608 137.172 504.473 134.733 504.514 131.904C504.51 131.08 504.506 130.255 504.502 129.405C504.495 126.676 504.516 123.948 504.539 121.219C504.541 119.324 504.542 117.43 504.542 115.536C504.545 111.565 504.561 107.594 504.588 103.623C504.622 98.5279 504.63 93.4336 504.628 88.3388C504.629 84.4269 504.64 80.5151 504.654 76.6033C504.661 74.7246 504.665 72.8458 504.666 70.9671C504.67 68.3431 504.688 65.7196 504.709 63.0957C504.708 62.3164 504.707 61.5371 504.707 60.7341C504.752 56.9551 504.851 55.2229 507 52Z" fill="#BEA468"/>
<path d="M381.008 68.9219C386.304 72.5571 388.494 75.7741 390 82C389.559 84.2422 389.559 84.2422 389 86C386.728 85.94 384.458 85.8512 382.188 85.75C380.923 85.7036 379.658 85.6572 378.355 85.6094C375 85 375 85 373.051 83.2032C372 81 372 81 372 77C372.66 76.67 373.32 76.34 374 76C374 75.01 374 74.02 374 73C374 72.01 374 71.02 374 70C376.572 68.2321 378.093 67.5834 381.008 68.9219Z" fill="#E8DB8D"/>
<path d="M99 105C102.164 109.745 104.248 114.986 106.562 120.188C107.07 121.299 107.577 122.411 108.1 123.557C110.724 129.458 112.676 134.527 113 141C110.002 143.914 107.642 144.341 103.515 144.34C102.814 144.324 102.113 144.309 101.391 144.293C100.664 144.289 99.937 144.284 99.1882 144.28C96.8751 144.263 94.5628 144.226 92.25 144.188C90.6784 144.172 89.1068 144.159 87.5352 144.146C83.6898 144.113 79.845 144.062 76 144C76 143.67 76 143.34 76 143C86.56 143 97.12 143 108 143C108.33 141.68 108.66 140.36 109 139C109.66 138.01 110.32 137.02 111 136C110.34 136 109.68 136 109 136C108.67 136.99 108.34 137.98 108 139C105.938 139.688 105.938 139.688 104 140C104.33 138.68 104.66 137.36 105 136C105.66 136 106.32 136 107 136C106.505 135.381 106.01 134.762 105.5 134.125C103.642 130.255 103.843 127.427 104.09 123.207C104.241 120.789 104.241 120.789 102 119C99.3236 116.815 99.3236 116.815 97 117C95.6462 109.615 95.6462 109.615 97.4375 106.5C97.9531 106.005 98.4688 105.51 99 105Z" fill="#A38149"/>
<path d="M606.82 50.5742C607.479 50.5775 608.137 50.5807 608.816 50.5841C610.92 50.5998 613.022 50.6438 615.125 50.6875C616.515 50.699 617.906 50.7087 619.297 50.7167C626.574 50.7825 633.776 51.0789 641 52C641 52.33 641 52.66 641 53C639.312 53.014 639.312 53.014 637.591 53.0283C633.407 53.0682 629.223 53.134 625.039 53.2075C623.23 53.2357 621.421 53.2569 619.612 53.2709C617.008 53.2924 614.405 53.3391 611.801 53.3906C610.592 53.3924 610.592 53.3924 609.36 53.3943C608.219 53.4239 608.219 53.4239 607.056 53.4541C606.392 53.4629 605.728 53.4718 605.044 53.481C601.841 54.2941 600.252 55.593 598 58C597.514 60.7369 597.353 62.8511 597.416 65.5825C597.414 66.3406 597.412 67.0988 597.409 67.8799C597.408 70.3816 597.442 72.8814 597.476 75.3828C597.483 77.121 597.488 78.8593 597.491 80.5976C597.501 84.2377 597.528 87.8771 597.568 91.517C597.619 96.1891 597.644 100.861 597.659 105.533C597.673 109.983 597.699 114.433 597.726 118.883C597.731 119.735 597.736 120.587 597.741 121.465C597.757 123.869 597.781 126.273 597.807 128.676C597.811 129.392 597.815 130.108 597.82 130.846C597.82 134.547 597.82 134.547 599 138C599.99 138 600.98 138 602 138C602.33 139.32 602.66 140.64 603 142C601.02 142.495 601.02 142.495 599 143C595.421 139.375 595.567 135.711 595.596 130.898C595.589 130.085 595.582 129.271 595.575 128.433C595.557 125.747 595.56 123.061 595.566 120.375C595.562 118.507 595.556 116.639 595.55 114.771C595.541 110.857 595.544 106.943 595.554 103.029C595.565 98.0119 595.545 92.9952 595.516 87.9779C595.497 84.1209 595.498 80.2641 595.503 76.407C595.504 74.557 595.498 72.707 595.485 70.8571C595.47 68.2714 595.481 65.6871 595.498 63.1015C595.488 62.3367 595.479 61.5719 595.469 60.7839C595.517 57.3083 595.739 55.3513 597.835 52.523C600.895 50.3705 603.105 50.5295 606.82 50.5742Z" fill="#9D7C4B"/>
<path d="M47 76C47.9342 79.0103 48.0445 79.8665 47 83C47.33 83.66 47.66 84.32 48 85C47 87 47 87 46 89C46.33 89.66 46.66 90.32 47 91C47.0397 92.6662 47.0438 94.3339 47 96C46.01 96 45.02 96 44 96C44 95.34 44 94.68 44 94C43.34 94 42.68 94 42 94C41.6643 95.6245 41.3315 97.2496 41 98.875C40.8144 99.7799 40.6287 100.685 40.4375 101.617C39.9398 103.924 39.9398 103.924 40 106C40 106.99 40 107.98 40 109C38.02 109.495 38.02 109.495 36 110C36.7438 112.977 36.7438 112.977 38.5625 114.562C39.0369 115.037 39.5112 115.511 40 116C40 116.66 40 117.32 40 118C42.64 118.33 45.28 118.66 48 119C44.087 121.609 41.9153 121.108 37.3906 120.539C35 120 35 120 32.3125 118.25C31 116 31 116 31.2068 113.868C32.266 110.038 33.7908 106.493 35.3789 102.855C35.7104 102.086 36.0419 101.316 36.3835 100.523C37.4386 98.0757 38.5005 95.6316 39.5625 93.1875C40.281 91.5243 40.9991 89.8609 41.7168 88.1973C43.4728 84.1293 45.2348 80.064 47 76Z" fill="#946733"/>
<path d="M616 124C622.799 123.924 629.598 123.872 636.398 123.835C638.712 123.82 641.027 123.8 643.341 123.774C646.663 123.737 649.983 123.72 653.305 123.707C654.864 123.684 654.864 123.684 656.455 123.66C657.416 123.66 658.377 123.66 659.367 123.659C660.215 123.653 661.063 123.646 661.937 123.639C662.958 123.818 662.958 123.818 664 124C666.372 127.558 666.298 129.28 666.312 133.5C666.329 134.645 666.346 135.789 666.363 136.969C666 140 666 140 664.86 141.668C662.174 143.591 660.159 143.36 656.876 143.341C655.615 143.34 654.354 143.34 653.055 143.34C651.678 143.325 650.302 143.309 648.926 143.293C647.518 143.287 646.109 143.283 644.701 143.28C640.997 143.269 637.293 143.239 633.59 143.206C629.809 143.175 626.029 143.162 622.248 143.147C614.832 143.114 607.416 143.063 600 143C600 142.67 600 142.34 600 142C601.158 141.975 602.316 141.95 603.51 141.924C607.886 141.829 612.262 141.729 616.638 141.628C618.517 141.585 620.397 141.543 622.276 141.503C628.518 141.368 634.759 141.203 641 141C641.794 140.975 642.588 140.951 643.406 140.926C645.595 140.851 647.781 140.756 649.969 140.652C651.19 140.599 652.412 140.547 653.67 140.492C657.325 139.952 659.847 138.904 663 137C664.671 134.031 664.671 134.031 664 126C648.16 125.67 632.32 125.34 616 125C616 124.67 616 124.34 616 124Z" fill="#876235"/>
<path d="M117.066 52.9023C118.302 52.9197 118.302 52.9197 119.563 52.9375C120.389 52.9465 121.215 52.9555 122.066 52.9648C122.705 52.9764 123.343 52.988 124 53C124 53.66 124 54.32 124 55C124.66 55.66 125.32 56.32 126 57C126.125 59.625 126.125 59.625 126 62C126.99 62 127.98 62 129 62C129 62.66 129 63.32 129 64C127.02 64.33 125.04 64.66 123 65C123.454 65.3506 123.908 65.7012 124.375 66.0625C126.647 68.771 127.168 71.608 128 75C127.34 75.33 126.68 75.66 126 76C125.67 75.34 125.34 74.68 125 74C124.408 73.7473 123.817 73.4947 123.207 73.2344C120.091 71.4917 118.685 69.1864 116.688 66.25C115.97 65.2239 115.252 64.1978 114.512 63.1406C112.753 59.4872 112.862 57.8331 114 54C115 53 115 53 117.066 52.9023Z" fill="#AF8949"/>
<path d="M655 87C659.875 88.75 659.875 88.75 661 91C661.174 92.9534 661.267 94.9144 661.312 96.875C661.369 98.4489 661.369 98.4489 661.426 100.055C661 103 661 103 659.558 105.16C655.716 107.924 652.258 107.499 647.641 107.391C646.736 107.385 645.832 107.379 644.9 107.373C642.016 107.351 639.134 107.301 636.25 107.25C634.293 107.23 632.336 107.212 630.379 107.195C625.585 107.151 620.793 107.082 616 107C616 112.28 616 117.56 616 123C615.34 122.67 614.68 122.34 614 122C613.973 119.75 613.954 117.5 613.938 115.25C613.926 113.997 613.914 112.744 613.902 111.453C614 108 614 108 615 104C628.53 104 642.06 104 656 104C657.25 97.7476 657.832 92.8404 655 87Z" fill="#896534"/>
<path d="M274 52C279.28 52 284.56 52 290 52C291.896 57.6883 292.196 60.3138 292 66C291.34 65.67 290.68 65.34 290 65C289.466 61.6347 289 58.4037 289 55C284.788 53.4202 284.788 53.4202 275 54C274.67 72.81 274.34 91.62 274 111C271.812 107.719 271.748 106.755 271.741 102.949C271.735 101.922 271.729 100.894 271.722 99.8345C271.726 98.7251 271.73 97.6157 271.734 96.4727C271.733 95.3322 271.731 94.1917 271.729 93.0167C271.727 90.6033 271.731 88.19 271.739 85.7766C271.75 82.0807 271.739 78.3853 271.727 74.6895C271.728 72.3464 271.731 70.0033 271.734 67.6602C271.73 66.5528 271.726 65.4454 271.722 64.3045C271.728 63.2734 271.735 62.2423 271.741 61.1799C271.743 60.2741 271.744 59.3682 271.746 58.435C272 56 272 56 274 52Z" fill="#E7D999"/>
<path d="M488 80C492.091 86.1371 492.617 94.7301 492 102C491.932 102.807 491.863 103.614 491.793 104.445C490.385 115.061 485.314 125.207 478 133C475.188 133.375 475.188 133.375 473 133C473 132.01 473 131.02 473 130C474.134 129.588 475.269 129.175 476.438 128.75C480.034 127.437 480.034 127.437 480.938 125.062C480.999 123.042 481 121.021 481 119C481 117.333 481 115.667 481 114C482.65 114.33 484.3 114.66 486 115C488.361 107.865 489.278 102.394 488 95C488 90 488 85 488 80Z" fill="#C4AF75"/>
<path d="M61 125C61 125.33 61 125.66 61 126C59.194 126.091 59.194 126.091 57.3516 126.184C55.776 126.268 54.2005 126.353 52.625 126.438C51.8309 126.477 51.0369 126.516 50.2188 126.557C45.974 126.689 45.974 126.689 42 128C42 127.34 42 126.68 42 126C40.952 126.126 40.952 126.126 39.8828 126.254C38.9727 126.356 38.0627 126.458 37.125 126.563C36.2201 126.667 35.3152 126.771 34.3828 126.879C32 127 32 127 30 126C30 126.66 30 127.32 30 128C29.34 128 28.68 128 28 128C28 128.66 28 129.32 28 130C28.99 129.67 29.98 129.34 31 129C30.6875 131.375 30.6875 131.375 30 134C29.01 134.66 28.02 135.32 27 136C26.67 138.31 26.34 140.62 26 143C31.94 143 37.88 143 44 143C44 143.33 44 143.66 44 144C40.7296 144.145 37.4601 144.234 34.1875 144.313C33.2587 144.354 32.33 144.396 31.373 144.44C28.8269 144.485 26.5044 144.465 24 144C21.7891 141.766 21.7891 141.766 21 139C21.293 136.684 21.293 136.684 22.1875 134.438C22.4698 133.694 22.7521 132.95 23.043 132.184C25.6838 126.158 25.6838 126.158 28 125C38.9914 123.55 50.0233 123.536 61 125Z" fill="#895E2C"/>
<path d="M631 50.9999C635.502 50.9258 640.004 50.8713 644.507 50.8351C646.039 50.8201 647.57 50.7996 649.102 50.7736C651.304 50.7372 653.505 50.7202 655.707 50.707C656.392 50.6915 657.076 50.676 657.781 50.6601C660.623 50.659 662.545 50.6908 664.933 52.3129C666.703 55.1117 666.356 57.8119 666.312 61.0624C666.309 62.3115 666.305 63.5606 666.301 64.8476C666 67.9999 666 67.9999 664 69.9999C661.937 70.2405 661.937 70.2405 659.367 70.227C658.406 70.2268 657.445 70.2267 656.455 70.2265C655.415 70.2162 654.376 70.2059 653.305 70.1953C652.242 70.1924 651.18 70.1896 650.085 70.1867C646.681 70.1755 643.278 70.1504 639.875 70.1249C637.572 70.1149 635.268 70.1058 632.965 70.0976C627.31 70.0755 621.655 70.042 616 69.9999C616 69.6699 616 69.3399 616 68.9999C631.18 68.9999 646.36 68.9999 662 68.9999C663.934 64.2959 663.934 64.2959 664.125 59.6874C664.084 58.4706 664.043 57.2537 664 55.9999C662.855 56.0618 662.855 56.0618 661.688 56.1249C659 55.9999 659 55.9999 656 53.9999C653.292 53.5404 653.292 53.5404 650.238 53.3671C649.12 53.2833 648.002 53.1996 646.85 53.1132C645.682 53.0346 644.515 52.956 643.312 52.8749C642.134 52.7886 640.955 52.7022 639.74 52.6132C636.827 52.4009 633.914 52.1968 631 51.9999C631 51.6699 631 51.3399 631 50.9999Z" fill="#805E32"/>
<path d="M507 52C507.99 52.33 508.98 52.66 510 53C509.268 53.4967 509.268 53.4967 508.522 54.0035C506.192 57.0588 506.599 60.2555 506.643 63.9438C506.641 64.7522 506.639 65.5606 506.637 66.3935C506.634 69.0672 506.653 71.7404 506.672 74.4141C506.675 76.2683 506.677 78.1225 506.677 79.9767C506.682 83.8621 506.696 87.7474 506.719 91.6328C506.747 96.6245 506.758 101.616 506.762 106.608C506.766 110.435 506.776 114.263 506.788 118.091C506.794 119.932 506.799 121.773 506.802 123.615C506.809 126.182 506.823 128.748 506.839 131.315C506.84 132.083 506.841 132.851 506.842 133.642C506.557 137.112 506.557 137.112 508 140C510.186 140.073 512.375 140.084 514.562 140.062C515.76 140.053 516.957 140.044 518.191 140.035C519.581 140.018 519.581 140.018 521 140C521.33 138.02 521.66 136.04 522 134C523.381 136.275 524.057 137.502 523.75 140.188C523 142 523 142 521 143C519.045 143.148 517.085 143.221 515.125 143.25C514.076 143.276 513.026 143.302 511.945 143.328C508.476 142.942 507.371 142.55 505 140C504.608 137.172 504.473 134.733 504.514 131.904C504.51 131.08 504.506 130.255 504.502 129.405C504.495 126.676 504.516 123.948 504.539 121.219C504.541 119.325 504.542 117.43 504.542 115.536C504.545 111.565 504.561 107.594 504.588 103.623C504.622 98.5279 504.63 93.4336 504.628 88.3388C504.629 84.4269 504.64 80.5151 504.654 76.6033C504.661 74.7246 504.665 72.8459 504.666 70.9671C504.67 68.3432 504.688 65.7196 504.709 63.0957C504.708 62.3164 504.707 61.5371 504.707 60.7341C504.752 56.9551 504.851 55.2229 507 52Z" fill="#B3A377"/>
<path d="M290 67C290.66 67 291.32 67 292 67C292.113 84.7732 292.064 102.541 291.682 120.311C291.644 122.104 291.609 123.897 291.578 125.691C291.533 128.211 291.476 130.73 291.414 133.25C291.403 134.007 291.391 134.764 291.379 135.543C291.229 140.771 291.229 140.771 289 143C286.255 143.145 283.615 143.187 280.875 143.125C280.121 143.116 279.367 143.107 278.59 143.098C276.726 143.074 274.863 143.038 273 143C273 142.67 273 142.34 273 142C277.95 141.67 282.9 141.34 288 141C288.729 135.9 289.109 131.605 289.062 126.531C289.054 125.072 289.045 123.613 289.037 122.153C289.031 121.394 289.025 120.635 289.018 119.852C288.881 102.212 289.289 84.6245 290 67Z" fill="#F4E6A2"/>
<path d="M579 70C582.595 75.3929 582.501 82.4817 581.602 88.7969C579.678 96.0854 576.184 102.113 569.625 106C568.326 106.495 568.326 106.495 567 107C567.33 103.7 567.66 100.4 568 97C571 96 571 96 575 96C576.597 93.1314 577.347 90.7614 577.688 87.5C577.774 86.7472 577.86 85.9944 577.949 85.2188C578.026 81.8569 577.058 79.1727 576 76C577.438 72.8125 577.438 72.8125 579 70Z" fill="#A4864D"/>
<path d="M576 129C580 130 580 130 581.75 132.188C583.18 135.406 583.387 137.514 583 141C579.743 144.257 575.425 143.601 571.042 143.649C567.709 143.546 565.447 143.31 562.68 141.387C561.127 139.315 560.019 137.376 559 135C558.546 134.01 558.093 133.02 557.625 132C557.419 131.34 557.213 130.68 557 130C562 135 562 135 563.375 136.75C565.975 138.75 568.811 138.699 572 139C572 139.66 572 140.32 572 141C573.32 140.67 574.64 140.34 576 140C576 136.37 576 132.74 576 129Z" fill="#A78C56"/>
<path d="M190.938 51.7501C191.775 51.7294 192.612 51.7088 193.475 51.6876C194.276 51.6824 195.077 51.6772 195.902 51.6719C197.008 51.6579 197.008 51.6579 198.136 51.6436C198.751 51.7612 199.366 51.8789 200 52.0001C202 55.0001 202 55.0001 201.812 57.3751C200.912 60.2854 199.77 62.5224 198 65.0001C197.34 65.0001 196.68 65.0001 196 65.0001C195.898 65.5621 195.796 66.1241 195.691 66.7032C194.864 69.4535 193.568 71.391 191.938 73.7501C191.39 74.5493 190.842 75.3485 190.277 76.1719C189.856 76.7752 189.434 77.3785 189 78.0001C188.01 77.0101 187.02 76.0201 186 75.0001C187.375 73.5001 187.375 73.5001 189 72.0001C189.66 72.0001 190.32 72.0001 191 72.0001C191.33 70.0201 191.66 68.0401 192 66.0001C192.66 66.0001 193.32 66.0001 194 66.0001C194.597 63.2374 195 60.8397 195 58.0001C195.306 56.6602 195.635 55.3249 196 54.0001C191.576 53.5337 187.404 53.2847 183 54.0001C180.389 56.301 179.216 58.7783 178 62.0001C177.67 62.6601 177.34 63.3201 177 64.0001C176.01 63.6701 175.02 63.3401 174 63.0001C175.375 60.5001 175.375 60.5001 177 58.0001C177.66 58.0001 178.32 58.0001 179 58.0001C179.309 57.1957 179.619 56.3913 179.938 55.5626C182.068 50.4254 185.974 51.7805 190.938 51.7501Z" fill="#C7AF70"/>
<path d="M357 66C359 67 359 67 359.812 69C360.204 69.66 360.596 70.32 361 71C362.665 71.3415 364.332 71.6745 366 72C367.812 74.0625 367.812 74.0625 369 76C370.65 75.67 372.3 75.34 374 75C374.495 75.99 374.495 75.99 375 77C374.01 77 373.02 77 372 77C372 78.32 372 79.64 372 81C372.66 81.33 373.32 81.66 374 82C374.495 82.99 374.495 82.99 375 84C377.816 84.469 377.816 84.469 381.062 84.625C382.167 84.6998 383.272 84.7745 384.41 84.8516C385.265 84.9005 386.119 84.9495 387 85C387 85.33 387 85.66 387 86C385.087 86.2767 383.169 86.5204 381.25 86.75C380.183 86.8892 379.115 87.0284 378.016 87.1719C375 87 375 87 372.73 85.2031C371 83 371 83 369.062 80C365.618 74.99 361.948 72.2977 356 71C346.493 70.1036 339.886 71.7425 332 77C332.125 75.125 332.125 75.125 333 73C336 71.875 336 71.875 339 71C339.33 70.34 339.66 69.68 340 69C342.276 68.5547 344.573 68.2176 346.875 67.9375C352.015 67.3136 352.015 67.3136 357 66Z" fill="#EDE7A7"/>
<path d="M219.875 110.688C221.449 110.631 221.449 110.631 223.055 110.574C226.763 111.11 227.692 112.101 230 115C230.486 117.594 230.486 117.594 230.461 120.5C230.457 121.552 230.453 122.604 230.449 123.688C230.425 124.781 230.4 125.874 230.375 127C230.374 128.093 230.372 129.186 230.371 130.312C230.274 139.154 230.274 139.154 228 143C227.119 140.022 226.933 137.547 227.121 134.453C227.169 133.609 227.218 132.764 227.268 131.895C227.324 131.022 227.38 130.149 227.438 129.25C227.49 128.362 227.542 127.474 227.596 126.559C227.725 124.372 227.86 122.186 228 120C227.34 119.67 226.68 119.34 226 119C225.67 118.01 225.34 117.02 225 116C225.33 115.67 225.66 115.34 226 115C225.67 114.34 225.34 113.68 225 113C219.06 113.495 219.06 113.495 213 114C212.67 115.65 212.34 117.3 212 119C211.34 119 210.68 119 210 119C210.599 116.648 211.269 114.314 212 112C214.686 110.657 216.877 110.757 219.875 110.688Z" fill="#CBB97F"/>
<path d="M432 65C436.75 65.75 436.75 65.75 439 68C439.99 68.33 440.98 68.66 442 69C442 69.66 442 70.32 442 71C441.022 71.2552 441.022 71.2552 440.023 71.5156C432.233 73.6758 426.641 76.2745 422.035 83.1172C420.452 85.9974 419.719 88.7994 419 92C418.34 92 417.68 92 417 92C417.278 90.4222 417.278 90.4222 417.562 88.8125C417.951 85.4288 417.882 83.2357 417 80C418.32 80 419.64 80 421 80C422.673 78.4817 422.673 78.4817 424.062 76.5C425.535 74.5312 425.535 74.5312 427 73C427.99 73 428.98 73 430 73C430 71.68 430 70.36 430 69C430.66 68.67 431.32 68.34 432 68C432 67.01 432 66.02 432 65Z" fill="#D9C77E"/>
<path d="M385.672 109.258C389 110 389 110 390.988 111.867C392 114 392 114 391.438 117C389.982 120.037 388.527 121.81 386 124C385.34 123.67 384.68 123.34 384 123C384.33 122.01 384.66 121.02 385 120C385.66 120 386.32 120 387 120C386.484 119.051 385.969 118.102 385.438 117.125C384.963 116.094 384.489 115.062 384 114C384.33 113.34 384.66 112.68 385 112C381.626 111.583 381.626 111.583 378 112C375.991 114.373 375.991 114.373 375 117C374.34 116.67 373.68 116.34 373 116C372.01 117.485 372.01 117.485 371 119C370.34 119 369.68 119 369 119C369 119.66 369 120.32 369 121C368.34 120.67 367.68 120.34 367 120C371.343 110.537 375.785 108.923 385.672 109.258Z" fill="#E1DA9D"/>
<path d="M557 72C558.98 72 560.96 72 563 72C563.33 72.99 563.66 73.98 564 75C564.66 75.33 565.32 75.66 566 76C566.484 77.9609 566.484 77.9609 566.75 80.375C566.848 81.1665 566.946 81.958 567.047 82.7734C567 85 567 85 565 88C564.34 88 563.68 88 563 88C562.711 88.6394 562.423 89.2788 562.125 89.9375C561 92 561 92 559 93C558.67 93.99 558.34 94.98 558 96C557.34 96 556.68 96 556 96C556 95.34 556 94.68 556 94C555.01 94 554.02 94 553 94C553 93.34 553 92.68 553 92C554.79 91.0234 556.581 90.0469 558.371 89.0703C560.166 88.0859 560.166 88.0859 561 86C561.567 81.2728 561.648 77.993 559 73.9375C558.34 73.2981 557.68 72.6587 557 72Z" fill="#AB8D53"/>
<path d="M417 104C419.833 106.293 420.777 108.851 422.133 112.164C424.965 118.16 429.332 121.11 435 124C435 124.33 435 124.66 435 125C430.543 124.738 428.485 124.423 425.062 121.438C424.382 120.633 423.701 119.829 423 119C422.01 119.33 421.02 119.66 420 120C419.01 120 418.02 120 417 120C416.34 118.35 415.68 116.7 415 115C415.66 115 416.32 115 417 115C416.916 114.29 416.832 113.579 416.746 112.848C416.644 111.929 416.542 111.009 416.438 110.062C416.333 109.146 416.229 108.229 416.121 107.285C416.081 106.531 416.041 105.777 416 105C416.33 104.67 416.66 104.34 417 104Z" fill="#D6C98E"/>
<path d="M213.766 51.8865C214.515 51.8917 215.264 51.8969 216.035 51.9023C216.844 51.9056 217.653 51.9088 218.486 51.9121C219.337 51.9205 220.187 51.9289 221.063 51.9375C221.917 51.942 222.771 51.9465 223.651 51.9512C225.767 51.963 227.884 51.9809 230 52C229.34 53.32 228.68 54.64 228 56C226.68 56 225.36 56 224 56C223.34 55.34 222.68 54.68 222 54C219.779 53.9769 219.779 53.9769 217.375 54.375C216.149 54.5413 216.149 54.5413 214.899 54.7109C213.959 54.854 213.959 54.854 213 55C213.833 57.1667 213.833 57.1667 216 58C216.145 58.7631 216.289 59.5263 216.438 60.3125C217.064 63.3067 217.888 64.8068 220 67C220.99 67 221.98 67 223 67C223 68.65 223 70.3 223 72C222.01 72 221.02 72 220 72C218.273 69.9889 216.797 68.0535 215.313 65.875C214.689 65.0204 214.689 65.0204 214.053 64.1484C211.397 60.3103 210.414 57.6514 211 53C212 52 212 52 213.766 51.8865Z" fill="#C8B47A"/>
<path d="M321 135C325.456 135.518 328.214 136.67 332 139C334.497 139.983 334.497 139.983 337 140C339.19 138.628 339.19 138.628 341 137C341.66 137 342.32 137 343 137C343 138.65 343 140.3 343 142C351.071 142.105 358.987 142.034 367 141C358.689 146.541 344.578 145.095 335.16 143.246C329.931 141.565 325.286 139.453 321 136C321 135.67 321 135.34 321 135Z" fill="#F4EEAB"/>
<path d="M325 107C325.248 107.536 325.495 108.072 325.75 108.625C327.042 111.187 327.042 111.187 329.125 114.125C331 117 331 117 331 119C331.66 119 332.32 119 333 119C333 119.66 333 120.32 333 121C341.601 124.542 349.985 126.852 359.293 124.395C362.081 123.224 364.486 121.676 367 120C365.542 124.617 365.542 124.617 363.43 126.109C356.087 128.801 345.693 129.137 338.312 126.5C333.71 124.254 331.007 121.037 328 117C327.468 116.499 326.935 115.997 326.387 115.48C324.286 113.238 324.259 110.983 324 108C324.33 107.67 324.66 107.34 325 107Z" fill="#EBE5A8"/>
<path d="M410 66C410.33 66.99 410.66 67.98 411 69C410.077 70.7506 409.148 72.5014 408.105 74.1836C403.02 82.5398 401.549 90.3684 401.812 100.062C401.826 101.023 401.84 101.984 401.853 102.975C401.888 105.317 401.937 107.658 402 110C401.34 110 400.68 110 400 110C397.268 97.7072 398.593 84.2578 405.062 73.375C406.023 71.9041 406.999 70.4437 408 69C408.66 68.01 409.32 67.02 410 66Z" fill="#E2D899"/>
<path d="M137 60C140.59 63.4199 143.533 66.8958 146.312 71C147.01 72.0106 147.707 73.0213 148.426 74.0625C150.052 77.0978 150.626 78.6278 150 82C146.442 84.3717 143.568 84.5077 139.438 84.75C138.752 84.8054 138.067 84.8609 137.361 84.918C135.578 85.0335 133.787 85.0249 132 85C131.34 84.34 130.68 83.68 130 83C130.976 82.9858 131.952 82.9716 132.957 82.957C134.229 82.9093 135.502 82.8616 136.812 82.8125C138.077 82.7777 139.342 82.7429 140.645 82.707C144.177 82.3438 144.177 82.3438 145.949 79.4492C146.296 78.641 146.643 77.8327 147 77C146.34 76.67 145.68 76.34 145 76C144.131 74.4257 143.327 72.8149 142.562 71.1875C141.303 68.5142 140.123 66.1623 138.34 63.8008C137 62 137 62 137 60Z" fill="#AF975B"/>
<path d="M61 125C61 125.33 61 125.66 61 126C59.194 126.091 59.194 126.091 57.3516 126.184C55.776 126.268 54.2005 126.353 52.625 126.438C51.8309 126.477 51.0369 126.516 50.2188 126.557C45.974 126.689 45.974 126.689 42 128C42 127.34 42 126.68 42 126C40.952 126.126 40.952 126.126 39.8828 126.254C38.9727 126.356 38.0627 126.458 37.125 126.563C36.2201 126.667 35.3152 126.771 34.3828 126.879C32 127 32 127 30 126C30 126.66 30 127.32 30 128C29.34 128 28.68 128 28 128C27.34 129.32 26.68 130.64 26 132C25.01 132 24.02 132 23 132C25.75 126.125 25.75 126.125 28 125C38.9914 123.55 50.0233 123.536 61 125Z" fill="#7F5C33"/>
<path d="M33.9998 107C34.3298 107 34.6598 107 34.9998 107C35.2679 107.928 35.536 108.856 35.8123 109.812C36.9369 112.831 37.7068 113.916 39.9998 116C39.9998 116.66 39.9998 117.32 39.9998 118C42.6398 118.33 45.2798 118.66 47.9998 119C44.0868 121.609 41.9151 121.108 37.3904 120.539C34.9998 120 34.9998 120 32.3123 118.25C30.9998 116 30.9998 116 31.1248 113.5C31.9272 111.207 32.821 109.122 33.9998 107Z" fill="#805E32"/>
<path d="M561 106C562.65 106 564.3 106 566 106C566.351 106.928 566.701 107.856 567.062 108.812C569.013 113.433 571.802 117.483 574.574 121.645C576 124 576 124 576 126C573.071 125.372 570.639 124.414 568 123C568 121.68 568 120.36 568 119C568.66 119 569.32 119 570 119C570 118.34 570 117.68 570 117C569.01 117 568.02 117 567 117C566.938 116.051 566.876 115.103 566.812 114.125C566.544 113.094 566.276 112.062 566 111C563.537 109.547 563.537 109.547 561 109C561 108.01 561 107.02 561 106Z" fill="#A9894B"/>
<path d="M226 73C227.65 73 229.3 73 231 73C230.954 73.6639 230.907 74.3277 230.86 75.0117C230.607 80.7895 230.607 80.7895 232.75 86.0625C234.949 87.9555 236.15 88.6946 239 89C239.33 90.98 239.66 92.96 240 95C235.028 93.619 233.636 91.3128 231 87C229.899 85.6644 228.794 84.3312 227.688 83C225.395 80.0116 224.985 79.4289 225.125 75.5C225.414 74.675 225.703 73.85 226 73Z" fill="#D0BF83"/>
<path d="M662 140C662.99 140.33 663.98 140.66 665 141C663 143 663 143 660.368 143.241C659.253 143.236 658.138 143.232 656.99 143.227C655.098 143.227 655.098 143.227 653.168 143.227C651.787 143.216 650.405 143.206 649.023 143.195C647.614 143.192 646.204 143.189 644.795 143.187C641.082 143.179 637.37 143.159 633.658 143.137C629.871 143.117 626.084 143.108 622.297 143.098C614.865 143.076 607.432 143.042 600 143C600 142.67 600 142.34 600 142C601.143 141.985 601.143 141.985 602.309 141.969C609.476 141.871 616.642 141.768 623.808 141.661C627.493 141.605 631.178 141.552 634.863 141.503C638.416 141.455 641.969 141.403 645.522 141.347C646.88 141.327 648.239 141.308 649.597 141.291C651.494 141.267 653.39 141.236 655.287 141.205C656.909 141.182 656.909 141.182 658.564 141.158C660.948 141.272 660.948 141.272 662 140Z" fill="#866D48"/>
<path d="M631 51C641.56 51 652.12 51 663 51C663 52.32 663 53.64 663 55C661.188 55.625 661.188 55.625 659 56C658.01 55.34 657.02 54.68 656 54C653.292 53.5404 653.292 53.5404 650.238 53.3672C649.12 53.2834 648.002 53.1996 646.85 53.1133C645.682 53.0346 644.515 52.956 643.312 52.875C642.134 52.7886 640.955 52.7023 639.74 52.6133C636.827 52.401 633.914 52.1969 631 52C631 51.67 631 51.34 631 51Z" fill="#896337"/>
<path d="M82 113C83.5 114.375 83.5 114.375 85 116C85 116.66 85 117.32 85 118C85.66 118 86.32 118 87 118C88.25 124.625 88.25 124.625 86 128C77.75 127.34 69.5 126.68 61 126C61 125.67 61 125.34 61 125C69.25 125 77.5 125 86 125C84.68 121.7 83.36 118.4 82 115C82 114.34 82 113.68 82 113Z" fill="#947447"/>
<path d="M615 104C621.27 104.33 627.54 104.66 634 105C634 105.33 634 105.66 634 106C628.014 107.432 622.128 107.062 616 107C616 112.28 616 117.56 616 123C615.34 122.67 614.68 122.34 614 122C613.973 119.75 613.954 117.5 613.938 115.25C613.926 113.997 613.914 112.744 613.902 111.453C614 108 614 108 615 104Z" fill="#8E6A3F"/>
<path d="M465 73C467.31 73.66 469.62 74.32 472 75C471.67 75.99 471.34 76.98 471 78C471.186 79.1756 471.371 80.3513 471.562 81.5625C471.707 82.6969 471.851 83.8312 472 85C471.34 85.66 470.68 86.32 470 87C469.019 85.5426 468.041 84.0841 467.062 82.625C466.517 81.8129 465.972 81.0008 465.41 80.1641C464 78 464 78 463 76C463.66 75.01 464.32 74.02 465 73Z" fill="#C9B575"/>
<path d="M466 58C470.037 58 472.074 58.2386 475.246 60.8477C477.227 62.8501 479.143 64.8824 481 67C479.68 68.32 478.36 69.64 477 71C476.34 70.34 475.68 69.68 475 69C475.66 68.34 476.32 67.68 477 67C473.59 64.1355 470.093 62.653 466 61C466 60.01 466 59.02 466 58Z" fill="#C9B573"/>
<path d="M308 85C308.33 85.66 308.66 86.32 309 87C309.66 87.33 310.32 87.66 311 88C310.67 88.66 310.34 89.32 310 90C309.34 90 308.68 90 308 90C308 90.66 308 91.32 308 92C308.99 92.33 309.98 92.66 311 93C310.794 93.5981 310.587 94.1963 310.375 94.8125C309.693 97.2845 309.693 97.2845 312 100C311.67 100.66 311.34 101.32 311 102C308.937 102.625 308.937 102.625 307 103C304.8 89.8 304.8 89.8 308 85Z" fill="#E6DC8E"/>
<path d="M576 129C580 130 580 130 581.25 131.75C582.115 134.345 582.286 136.282 582 139C581.34 139.66 580.68 140.32 580 141C578.68 140.67 577.36 140.34 576 140C576 136.37 576 132.74 576 129Z" fill="#A68448"/>
<path d="M78 88C78.8489 93.3763 79.0024 97.6537 78 103C74.5707 99.2441 73.4357 94.7653 72 90C75 88 75 88 78 88Z" fill="#9C7742"/>
<path d="M290 120C290.33 120 290.66 120 291 120C291.058 123.458 291.094 126.916 291.125 130.375C291.142 131.36 291.159 132.345 291.176 133.359C291.182 134.3 291.189 135.241 291.195 136.211C291.206 137.08 291.216 137.95 291.227 138.845C291 141 291 141 289 143C286.255 143.145 283.615 143.187 280.875 143.125C280.121 143.116 279.367 143.107 278.59 143.098C276.726 143.074 274.863 143.038 273 143C273 142.67 273 142.34 273 142C277.95 141.67 282.9 141.34 288 141C288.695 136.132 289.237 131.45 289.562 126.562C289.646 125.326 289.73 124.09 289.816 122.816C289.907 121.422 289.907 121.422 290 120Z" fill="#E0D6A1"/>
<path d="M561 75C561.66 75 562.32 75 563 75C563.108 77.4387 563.187 79.8726 563.25 82.3125C563.3 83.3479 563.3 83.3479 563.352 84.4043C563.391 86.4258 563.391 86.4258 563 90C561.047 91.793 561.047 91.793 559 93C558.67 93.99 558.34 94.98 558 96C557.34 96 556.68 96 556 96C556 95.34 556 94.68 556 94C555.01 94 554.02 94 553 94C553 93.34 553 92.68 553 92C554.79 91.0234 556.581 90.0469 558.371 89.0703C560.166 88.0859 560.166 88.0859 561 86C561.07 84.1262 561.084 82.25 561.062 80.375C561.049 78.8707 561.049 78.8707 561.035 77.3359C561.024 76.5651 561.012 75.7942 561 75Z" fill="#AA9059"/>
<path d="M173 65C173.66 65 174.32 65 175 65C175.625 66.8125 175.625 66.8125 176 69C175.01 70.485 175.01 70.485 174 72C172.68 71.67 171.36 71.34 170 71C169.732 71.7219 169.464 72.4438 169.188 73.1875C168.001 75.9977 166.725 78.4842 165 81C164.34 81 163.68 81 163 81C163 81.66 163 82.32 163 83C162.34 82.67 161.68 82.34 161 82C162.811 79.353 164.624 76.7076 166.438 74.0625C166.954 73.3078 167.47 72.553 168.002 71.7754C168.495 71.0567 168.988 70.3381 169.496 69.5977C169.952 68.9326 170.407 68.2675 170.877 67.5823C172 66 172 66 173 65Z" fill="#BEA76C"/>
<path d="M79 61C79.66 61 80.32 61 81 61C82.1711 63.6231 83.3371 66.2483 84.5 68.875C85.0008 69.9946 85.0008 69.9946 85.5117 71.1367C85.8275 71.8521 86.1434 72.5676 86.4688 73.3047C86.762 73.9645 87.0553 74.6244 87.3574 75.3042C88 77 88 77 88 79C87.01 79 86.02 79 85 79C85 77.68 85 76.36 85 75C84.01 75.99 83.02 76.98 82 78C82 76.68 82 75.36 82 74C82.66 74 83.32 74 84 74C83.34 72.02 82.68 70.04 82 68C81.34 68 80.68 68 80 68C79.67 65.69 79.34 63.38 79 61Z" fill="#A1804A"/>
<path d="M54 103C55.125 104.688 55.125 104.688 56 107C55.125 109.75 55.125 109.75 54 112C53.01 112 52.02 112 51 112C50.67 113.65 50.34 115.3 50 117C49.34 117 48.68 117 48 117C47.3125 115.188 47.3125 115.188 47 113C48 112 49 111 50 110C50.2507 107.374 50.2507 107.374 50 105C50.99 105 51.98 105 53 105C53.33 104.34 53.66 103.68 54 103Z" fill="#9B682E"/>
<path d="M426 75C426.66 75.66 427.32 76.32 428 77C426.855 78.0209 426.855 78.0209 425.688 79.0625C422.042 83.0477 420.705 86.8855 419 92C418.34 92 417.68 92 417 92C417.186 90.9481 417.371 89.8963 417.562 88.8125C417.951 85.4288 417.882 83.2357 417 80C418.32 80 419.64 80 421 80C423.75 77.5833 423.75 77.5833 426 75Z" fill="#DFCF8F"/>
<path d="M231 55C238.926 62.7115 238.926 62.7115 239.188 67.25C239.126 68.1575 239.064 69.065 239 70C237.02 70 235.04 70 233 70C232.67 69.34 232.34 68.68 232 68C232.99 67.34 233.98 66.68 235 66C234.711 65.3735 234.423 64.747 234.125 64.1016C233.754 63.2843 233.382 62.467 233 61.625C232.629 60.8129 232.257 60.0008 231.875 59.1641C231 57 231 57 231 55Z" fill="#CFBD7C"/>
<path d="M553 120C554.98 120.66 556.96 121.32 559 122C559.33 123.65 559.66 125.3 560 127C558.68 127.99 557.36 128.98 556 130C553.592 126.488 552.634 124.273 553 120Z" fill="#B08E50"/>
<path d="M36.9998 99C37.9898 99 38.9798 99 39.9998 99C39.9998 102.333 39.9998 105.667 39.9998 109C38.3498 109.33 36.6998 109.66 34.9998 110C34.0451 107.83 33.8558 106.437 34.6014 104.176C35.3585 102.432 36.1759 100.714 36.9998 99Z" fill="#906735"/>
<path d="M417 111C417.99 111.33 418.98 111.66 420 112C420 112.66 420 113.32 420 114C420.99 114.66 421.98 115.32 423 116C422.34 117.32 421.68 118.64 421 120C419.68 120 418.36 120 417 120C416.34 118.35 415.68 116.7 415 115C415.66 115 416.32 115 417 115C417 113.68 417 112.36 417 111Z" fill="#DCCA7F"/>
<path d="M464 140C464 140.66 464 141.32 464 142C458.377 143.917 453.476 144.249 447.562 144.125C446.736 144.116 445.909 144.107 445.057 144.098C443.038 144.074 441.019 144.039 439 144C439 143.67 439 143.34 439 143C444.61 143 450.22 143 456 143C456 142.01 456 141.02 456 140C459.053 139.019 460.947 139.019 464 140Z" fill="#D1C286"/>
<path d="M385 111C386.98 111.495 386.98 111.495 389 112C388.67 115.63 388.34 119.26 388 123C386.68 123.33 385.36 123.66 384 124C384.33 122.68 384.66 121.36 385 120C385.66 120 386.32 120 387 120C386.484 119.072 385.969 118.144 385.438 117.188C384 114 384 114 385 111Z" fill="#E5D98A"/>
<path d="M473 94C473.33 94.66 473.66 95.32 474 96C475.65 96 477.3 96 479 96C478.52 100.314 477.254 102.166 474 105C472.717 101.15 472.933 98.0526 473 94Z" fill="#CBB26D"/>
<path d="M212 52C217.94 52 223.88 52 230 52C229.34 53.32 228.68 54.64 228 56C226.68 56 225.36 56 224 56C223.34 55.34 222.68 54.68 222 54C219.331 53.7568 219.331 53.7568 216.375 53.875C215.372 53.893 214.369 53.9111 213.336 53.9297C212.18 53.9645 212.18 53.9645 211 54C211.33 53.34 211.66 52.68 212 52Z" fill="#D0BE7C"/>
<path d="M507 129C507.99 129.495 507.99 129.495 509 130C508.67 131.32 508.34 132.64 508 134C508.66 134 509.32 134 510 134C510.186 134.959 510.186 134.959 510.375 135.938C510.684 136.958 510.684 136.958 511 138C511.66 138.33 512.32 138.66 513 139C512.67 139.66 512.34 140.32 512 141C510.35 140.67 508.7 140.34 507 140C507 136.37 507 132.74 507 129Z" fill="#C3A25C"/>
<path d="M531 107C531.843 107.23 531.843 107.23 532.703 107.465C535.058 108.014 537.345 108.315 539.75 108.562C540.549 108.646 541.348 108.73 542.172 108.816C543.077 108.907 543.077 108.907 544 109C544 109.66 544 110.32 544 111C538.72 111 533.44 111 528 111C528.66 110.67 529.32 110.34 530 110C530.33 109.01 530.66 108.02 531 107Z" fill="#B39963"/>
<path d="M88 80C90.4879 83.3173 91.5282 84.9961 92.6875 88.75C92.9389 89.5492 93.1902 90.3484 93.4492 91.1719C93.631 91.7752 93.8127 92.3784 94 93C93.34 93.66 92.68 94.32 92 95C91.8969 94.3606 91.7938 93.7212 91.6875 93.0625C91.4606 92.3819 91.2338 91.7013 91 91C90.01 90.67 89.02 90.34 88 90C88 86.7 88 83.4 88 80Z" fill="#A37F49"/>
<path d="M114 52C116.959 51.9193 119.916 51.8597 122.875 51.8125C123.717 51.7874 124.559 51.7622 125.426 51.7363C126.231 51.7267 127.037 51.717 127.867 51.707C128.983 51.6835 128.983 51.6835 130.121 51.6594C131.051 51.828 131.051 51.828 132 52C132.66 52.99 133.32 53.98 134 55C133.152 54.8363 132.304 54.6726 131.43 54.5039C127.935 53.9905 124.654 53.9015 121.125 53.9375C119.973 53.9465 118.82 53.9555 117.633 53.9648C116.764 53.9764 115.895 53.988 115 54C114.34 55.32 113.68 56.64 113 58C112.67 57.34 112.34 56.68 112 56C112.938 53.875 112.938 53.875 114 52Z" fill="#AA915F"/>
<path d="M481 114C483.475 114.99 483.475 114.99 486 116C484.25 121.75 484.25 121.75 482 124C480.4 121.458 479.952 120.346 480.375 117.312C480.581 116.549 480.788 115.786 481 115C481 114.67 481 114.34 481 114Z" fill="#C9AD65"/>
<path d="M325 107C325.248 107.536 325.495 108.072 325.75 108.625C327.042 111.187 327.042 111.187 329.125 114.125C331 117 331 117 331 119C331.66 119 332.32 119 333 119C333 119.66 333 120.32 333 121C333.66 121.33 334.32 121.66 335 122C334.01 122 333.02 122 332 122C330 119.688 330 119.688 328 117C327.443 116.526 326.886 116.051 326.312 115.562C324.355 113.232 324.258 110.97 324 108C324.33 107.67 324.66 107.34 325 107Z" fill="#F2ECB0"/>
<path d="M481 71C482.875 71.125 482.875 71.125 485 72C486.25 75.0625 486.25 75.0625 487 78C485.02 78.33 483.04 78.66 481 79C480.2 75.713 479.903 74.2898 481 71Z" fill="#C6B06D"/>
<path d="M272 137C273.65 137 275.3 137 277 137C277.33 137.99 277.66 138.98 278 140C279.65 140.33 281.3 140.66 283 141C283 141.33 283 141.66 283 142C279.04 142 275.08 142 271 142C271.33 141.01 271.66 140.02 272 139C272 138.34 272 137.68 272 137Z" fill="#DFD288"/>
<path d="M261 96C263.419 98.2458 265.235 100.356 267.062 103.125C268.855 106.178 268.855 106.178 272 108C271.67 108.99 271.34 109.98 271 111C268 110 268 110 266.562 107.312C266.047 106.219 265.531 105.126 265 104C264.278 102.928 263.556 101.855 262.812 100.75C261 98 261 98 261 96Z" fill="#DFD393"/>
<path d="M565 55C569.43 56.3923 571.916 58.563 575 62C575 62.33 575 62.66 575 63C573.02 63 571.04 63 569 63C568.897 62.4225 568.794 61.845 568.688 61.25C567.902 58.6795 566.695 57.0634 565 55Z" fill="#A98A50"/>
<path d="M522 134C523.062 135.75 523.062 135.75 524 138C523.67 139.32 523.34 140.64 523 142C519.04 142 515.08 142 511 142C514.644 139.571 516.712 139.838 521 140C521.33 138.02 521.66 136.04 522 134Z" fill="#B59F65"/>
<path d="M401 111C404.282 112.641 404.746 115.693 406 119C406 119.99 406 120.98 406 122C406.66 122 407.32 122 408 122C408.66 123.98 409.32 125.96 410 128C405.004 123.836 402.95 119.156 401 113C401 112.34 401 111.68 401 111Z" fill="#E0D89C"/>
<path d="M582 135C582.33 135 582.66 135 583 135C583.125 137.875 583.125 137.875 583 141C581 143 581 143 577.305 143.195C575.828 143.182 574.351 143.158 572.875 143.125C572.121 143.116 571.367 143.107 570.59 143.098C568.726 143.074 566.863 143.038 565 143C565 142.67 565 142.34 565 142C566.355 141.927 566.355 141.927 567.738 141.852C568.918 141.777 570.097 141.702 571.312 141.625C573.07 141.521 573.07 141.521 574.863 141.414C578.157 141.214 578.157 141.214 581 139C581.724 136.941 581.724 136.941 582 135Z" fill="#988058"/>
<path d="M471 105C471.33 105 471.66 105 472 105C472.081 106.77 472.139 108.541 472.188 110.312C472.222 111.299 472.257 112.285 472.293 113.301C472 116 472 116 470.488 117.855C469.997 118.233 469.506 118.611 469 119C468.67 118.67 468.34 118.34 468 118C468.449 113.415 469.419 109.321 471 105Z" fill="#C8B478"/>
<path d="M226 73C227.65 73 229.3 73 231 73C230.67 75.64 230.34 78.28 230 81C229.01 80.34 228.02 79.68 227 79C226.34 79 225.68 79 225 79C225.33 77.02 225.66 75.04 226 73Z" fill="#CCB870"/>
<path d="M113 58C114.812 58.0625 114.812 58.0625 117 59C118.562 62.1875 118.562 62.1875 119.273 64.0781C120.311 66.8219 121.664 69.3919 123 72C122.34 72 121.68 72 121 72C119.55 70.0963 118.188 68.1253 116.875 66.125C115.788 64.4892 115.788 64.4892 114.68 62.8203C113 60 113 60 113 58Z" fill="#A58F5E"/>
<path d="M662 140C662.99 140.33 663.98 140.66 665 141C663 143 663 143 660.753 143.227C659.842 143.217 658.931 143.206 657.992 143.195C657.006 143.189 656.02 143.182 655.004 143.176C653.455 143.151 653.455 143.151 651.875 143.125C650.835 143.116 649.794 143.107 648.723 143.098C646.148 143.074 643.574 143.041 641 143C641 142.67 641 142.34 641 142C641.601 141.975 642.201 141.95 642.82 141.924C645.526 141.808 648.232 141.686 650.938 141.562C651.883 141.523 652.829 141.484 653.803 141.443C654.702 141.401 655.601 141.36 656.527 141.316C657.36 141.28 658.193 141.243 659.051 141.205C661.003 141.206 661.003 141.206 662 140Z" fill="#7E613E"/>
<path d="M179 88C179.66 88.33 180.32 88.66 181 89C177.04 94.94 177.04 94.94 173 101C172 97 172 97 173.75 93.9375C175.418 91.7595 176.971 89.8264 179 88Z" fill="#C0A974"/>
<path d="M47 76C48.1616 78.8658 47.9946 80.0163 47.0039 83.0156C46.2904 84.6166 46.2904 84.6166 45.5625 86.25C45.0894 87.3277 44.6163 88.4053 44.1289 89.5156C43.7564 90.3355 43.3838 91.1553 43 92C42.34 92 41.68 92 41 92C42.7481 86.5326 44.6579 81.2418 47 76Z" fill="#8D6C43"/>
<path d="M386 71C388.359 73.1445 389.911 74.9856 391 78C391.078 80.332 391.09 82.6684 391 85C390.01 84.67 389.02 84.34 388 84C388.33 83.01 388.66 82.02 389 81C388.036 78.6518 387.035 76.3181 386 74C386 73.01 386 72.02 386 71Z" fill="#E5DFA3"/>
<path d="M417 104C419.034 105.415 419.904 106.55 420.422 108.98C420.663 110.982 420.835 112.991 421 115C420.34 114.34 419.68 113.68 419 113C418.196 112.35 418.196 112.35 417.375 111.688C416 110 416 110 415.75 107.375C416 105 416 105 417 104Z" fill="#DFD28C"/>
<path d="M424 59C423.34 60.32 422.68 61.64 422 63C420.68 63 419.36 63 418 63C418 61.68 418 60.36 418 59C421.75 57.875 421.75 57.875 424 59ZM416 62C416.66 62.66 417.32 63.32 418 64C416.02 64.99 416.02 64.99 414 66C414 65.34 414 64.68 414 64C414.66 64 415.32 64 416 64C416 63.34 416 62.68 416 62Z" fill="#DBCA81"/>
<path d="M423 136C425.475 136.99 425.475 136.99 428 138C428.33 137.34 428.66 136.68 429 136C431.31 136.66 433.62 137.32 436 138C432.597 140.094 429.96 140.337 426 140C425.01 139.34 424.02 138.68 423 138C423 137.34 423 136.68 423 136Z" fill="#DCC77C"/>
<path d="M291 98C291.976 100.927 292.061 102.441 291.879 105.449C291.831 106.297 291.782 107.144 291.732 108.018C291.676 108.899 291.62 109.78 291.562 110.688C291.51 111.58 291.458 112.473 291.404 113.393C291.275 115.595 291.14 117.798 291 120C290.67 120 290.34 120 290 120C289.775 116.709 289.573 113.418 289.375 110.125C289.311 109.188 289.246 108.251 289.18 107.285C289.128 106.389 289.077 105.493 289.023 104.57C288.971 103.743 288.919 102.915 288.865 102.063C289 100 289 100 291 98Z" fill="#EAE0AE"/>
<path d="M182 52C184.062 52.4375 184.062 52.4375 186 53C185.01 53.33 184.02 53.66 183 54C181.584 55.7894 181.584 55.7894 180.375 57.9375C179.95 58.6478 179.524 59.358 179.086 60.0898C178.356 61.3741 177.661 62.6787 177 64C176.01 63.67 175.02 63.34 174 63C175.375 60.5 175.375 60.5 177 58C177.66 58 178.32 58 179 58C179.309 57.1956 179.619 56.3913 179.938 55.5625C181 53 181 53 182 52Z" fill="#BBA775"/>
<path d="M111 134C113 137 113 137 112.875 139.562C112 142 112 142 109.938 143.312C108.978 143.653 108.978 143.653 108 144C108.61 140.442 109.578 137.317 111 134Z" fill="#A5895A"/>
<path d="M148 128C148.99 128.33 149.98 128.66 151 129C150.928 129.615 150.856 130.23 150.781 130.863C150.688 131.672 150.596 132.48 150.5 133.312C150.407 134.113 150.314 134.914 150.219 135.738C149.952 138.119 149.952 138.119 150 141C149.01 141.495 149.01 141.495 148 142C148 137.38 148 132.76 148 128Z" fill="#B0945C"/>
<path d="M565 78C567 81 567 81 566.625 84.1875C566.419 85.1156 566.213 86.0437 566 87C565.01 87.33 564.02 87.66 563 88C563.14 86.5203 563.288 85.0413 563.438 83.5625C563.519 82.7388 563.6 81.9151 563.684 81.0664C564 79 564 79 565 78Z" fill="#B28948"/>
<path d="M243 73C246.875 77.75 246.875 77.75 248 80C246.02 80 244.04 80 242 80C241.67 78.35 241.34 76.7 241 75C241.66 75 242.32 75 243 75C243 74.34 243 73.68 243 73Z" fill="#D5BF76"/>
<path d="M655 87C659.875 88.75 659.875 88.75 661 91C661.071 93.0405 661.084 95.0833 661.062 97.125C661.053 98.2207 661.044 99.3164 661.035 100.445C661.024 101.288 661.012 102.131 661 103C660.67 103 660.34 103 660 103C659.67 98.71 659.34 94.42 659 90C657.68 89.67 656.36 89.34 655 89C655 88.34 655 87.68 655 87Z" fill="#775C3A"/>
<path d="M52 72C52.66 72.66 53.32 73.32 54 74C53.9375 76 53.9375 76 53 78C50.4375 79.25 50.4375 79.25 48 80C48.33 78.35 48.66 76.7 49 75C49.66 75 50.32 75 51 75C51.33 74.01 51.66 73.02 52 72Z" fill="#986A2E"/>
<path d="M192 69C192.66 69.33 193.32 69.66 194 70C191.525 73.96 191.525 73.96 189 78C188.01 77.01 187.02 76.02 186 75C187.375 73.5 187.375 73.5 189 72C189.66 72 190.32 72 191 72C191.33 71.01 191.66 70.02 192 69Z" fill="#C0A976"/>
<path d="M108 133C109.32 133.33 110.64 133.66 112 134C111.67 134.66 111.34 135.32 111 136C110.34 136 109.68 136 109 136C108.67 136.99 108.34 137.98 108 139C105.938 139.688 105.938 139.688 104 140C104.33 138.68 104.66 137.36 105 136C105.66 136 106.32 136 107 136C107.33 135.01 107.66 134.02 108 133Z" fill="#B08944"/>
<path d="M85 109C85.33 109.66 85.66 110.32 86 111C86.66 111.33 87.32 111.66 88 112C87.4266 114.867 87.1385 115.861 85 118C84.34 116.02 83.68 114.04 83 112C83.66 112 84.32 112 85 112C85 111.01 85 110.02 85 109Z" fill="#A47A3C"/>
<path d="M241 96C242.65 96 244.3 96 246 96C246.33 97.65 246.66 99.3 247 101C246.01 101.33 245.02 101.66 244 102C243.34 101.67 242.68 101.34 242 101C241.375 98.4375 241.375 98.4375 241 96Z" fill="#D5BD77"/>
<path d="M597 136C599.622 137.049 600.794 137.649 602.25 140.125C602.498 140.744 602.745 141.363 603 142C601.125 142.625 601.125 142.625 599 143C597 141 597 141 596.875 138.375C596.916 137.591 596.957 136.808 597 136Z" fill="#A17743"/>
<path d="M388 111C391 112 391 112 391.875 113.688C392.056 117.032 390.624 119.142 389 122C388.34 121.67 387.68 121.34 387 121C387.072 120.362 387.144 119.724 387.219 119.066C387.312 118.24 387.404 117.414 387.5 116.562C387.593 115.739 387.686 114.915 387.781 114.066C387.945 112.536 387.945 112.536 388 111Z" fill="#E8E1A6"/>
<path d="M568 113C570.743 116.2 572.63 119.005 574 123C572.68 122.34 571.36 121.68 570 121C570 119.68 570 118.36 570 117C569.01 117 568.02 117 567 117C567.33 115.68 567.66 114.36 568 113Z" fill="#A18757"/>
<path d="M52 65C53.1165 68.3496 52.9982 69.6726 52 73C50.4375 74.8125 50.4375 74.8125 49 76C48.67 75.34 48.34 74.68 48 74C48.7773 71.8359 48.7773 71.8359 49.9375 69.375C50.3178 68.5577 50.698 67.7405 51.0898 66.8984C51.3902 66.272 51.6905 65.6455 52 65Z" fill="#927142"/>
<path d="M553 65C555.31 65.33 557.62 65.66 560 66C559.67 66.66 559.34 67.32 559 68C557.68 68 556.36 68 555 68C554.67 68.99 554.34 69.98 554 71C552.938 69.125 552.938 69.125 552 67C552.33 66.34 552.66 65.68 553 65Z" fill="#B18E4B"/>
<path d="M323 59C323 62.3959 322.478 63.0662 320.5 65.6875C320.036 66.3101 319.572 66.9327 319.094 67.5742C318.733 68.0447 318.372 68.5152 318 69C317.01 68.34 316.02 67.68 315 67C317.64 64.36 320.28 61.72 323 59Z" fill="#ECE5A5"/>
<path d="M308 109C310.125 112.188 310.502 114.265 311 118C310.01 118.495 310.01 118.495 309 119C307.163 115.218 306.842 113.054 308 109Z" fill="#E7DC9C"/>
<path d="M39 114C39.33 114.66 39.66 115.32 40 116C37.69 116.33 35.38 116.66 33 117C32.67 116.01 32.34 115.02 32 114C34.6977 112.651 36.1516 113.197 39 114Z" fill="#93612C"/>
<path d="M186 78C186.66 78.33 187.32 78.66 188 79C186.02 81.97 184.04 84.94 182 88C181 84 181 84 181.996 82.2969C183.331 80.8646 184.665 79.4323 186 78Z" fill="#C3B078"/>
<path d="M578 71C580.152 74.2279 580.201 75.284 580 79C578.68 78.67 577.36 78.34 576 78C576.66 75.69 577.32 73.38 578 71Z" fill="#A98446"/>
<path d="M137 60C142.802 65.6452 142.802 65.6452 145 69C145 69.66 145 70.32 145 71C141.509 69.8363 141.148 69.1103 139.312 66.0625C138.876 65.3522 138.439 64.642 137.988 63.9102C137 62 137 62 137 60Z" fill="#AE9967"/>
<path d="M150 102C152 105.75 152 105.75 152 108C151.34 108 150.68 108 150 108C150.33 108.99 150.66 109.98 151 111C150.01 111.495 150.01 111.495 149 112C148.973 110.521 148.954 109.042 148.938 107.562C148.926 106.739 148.914 105.915 148.902 105.066C149 103 149 103 150 102Z" fill="#B4974F"/>
<path d="M40 106C40 106.99 40 107.98 40 109C38.35 109.33 36.7 109.66 35 110C34.67 108.68 34.34 107.36 34 106C36.4909 104.754 37.4108 105.223 40 106Z" fill="#995E28"/>
<path d="M64 84C64.33 84.66 64.66 85.32 65 86C64.2227 88.1641 64.2227 88.1641 63.0625 90.625C62.6822 91.4423 62.302 92.2595 61.9102 93.1016C61.6098 93.728 61.3095 94.3545 61 95C60.34 94.34 59.68 93.68 59 93C60.65 90.03 62.3 87.06 64 84Z" fill="#96764A"/>
<path d="M442 69C442 69.66 442 70.32 442 71C438.7 71.66 435.4 72.32 432 73C432 72.34 432 71.68 432 71C438.625 67.875 438.625 67.875 442 69Z" fill="#D6CA98"/>
<path d="M74 51C79.5714 56.1429 79.5714 56.1429 80 60C79.34 60 78.68 60 78 60C74 53.25 74 53.25 74 51Z" fill="#997D4B"/>
<path d="M410 128C410.66 128 411.32 128 412 128C412 128.66 412 129.32 412 130C412.99 130 413.98 130 415 130C415.66 131.32 416.32 132.64 417 134C416.01 134 415.02 134 414 134C410 129.543 410 129.543 410 128Z" fill="#DCD095"/>
<path d="M437 125C439.024 125.09 441.045 125.246 443.062 125.438C444.72 125.59 444.72 125.59 446.41 125.746C447.265 125.83 448.119 125.914 449 126C449 126.33 449 126.66 449 127C447.21 127.222 445.418 127.427 443.625 127.625C442.627 127.741 441.63 127.857 440.602 127.977C439.743 127.984 438.885 127.992 438 128C437.34 127.34 436.68 126.68 436 126C436.33 125.67 436.66 125.34 437 125Z" fill="#CABC86"/>
<path d="M289 58C289.99 58 290.98 58 292 58C292 60.64 292 63.28 292 66C291.34 65.67 290.68 65.34 290 65C289.593 62.6784 289.256 60.3431 289 58Z" fill="#F2E78E"/>
<path d="M199 52C199.99 52.99 200.98 53.98 202 55C201.812 57.625 201.812 57.625 201 60C200.01 60.495 200.01 60.495 199 61C199 58.03 199 55.06 199 52Z" fill="#CBB67B"/>
</svg>
